<?xml version="1.0" encoding="UTF-8"?>
<svg version="1.1" xmlns="http://www.w3.org/2000/svg" width="422" height="421">
<path d="M0 0 C139.26 0 278.52 0 422 0 C422 138.93 422 277.86 422 421 C282.74 421 143.48 421 0 421 C0 282.07 0 143.14 0 0 Z " fill="#FF751F" transform="translate(0,0)"/>
<path d="M0 0 C139.26 0 278.52 0 422 0 C422 138.93 422 277.86 422 421 C282.74 421 143.48 421 0 421 C0 282.07 0 143.14 0 0 Z M30 43 C20.48622203 54.5224451 13.79109139 68.59973038 10 83 C9.82633313 83.65950747 9.65266626 84.31901495 9.47373676 84.9985075 C7.20651239 95.25885712 7.7120137 105.78516841 7.7253418 116.23168945 C7.72098979 118.48643156 7.71580502 120.74117219 7.70985413 122.99591064 C7.69650501 129.09726113 7.69588094 135.19854951 7.69841743 141.29991174 C7.69948998 146.40401332 7.69459647 151.50810248 7.689812 156.61220139 C7.67809815 169.34751287 7.67893379 182.08277961 7.68536881 194.81809064 C7.69053516 205.84956261 7.6792862 216.8809462 7.66027059 227.9124007 C7.6408455 239.26945207 7.6329351 250.62644958 7.63639385 261.98352212 C7.63820197 268.34762579 7.6356176 274.71164852 7.62167931 281.07573891 C7.60905495 287.06354758 7.61108862 293.05118007 7.62409019 299.03898621 C7.62644555 301.22780608 7.62375893 303.41663852 7.61546707 305.60544395 C7.57488537 317.15699159 7.84456602 327.8068463 11 339 C11.19725017 339.74267278 11.39450033 340.48534555 11.59772778 341.25052357 C15.6202047 355.63106458 22.78579401 367.3943207 32 379 C32.78375 380.051875 33.5675 381.10375 34.375 382.1875 C38.51477996 386.62297853 43.21284884 390.28751542 48 394 C48.77214844 394.61101562 49.54429688 395.22203125 50.33984375 395.8515625 C67.58919405 408.76646067 88.13345539 414.17342078 109.44729614 414.13371277 C110.35503466 414.13597833 111.26277317 414.13824388 112.19801891 414.14057809 C115.216824 414.14686998 118.23558364 414.14609183 121.25439453 414.14526367 C123.42840126 414.14825821 125.60240746 414.15166142 127.77641296 414.15544128 C133.66719802 414.16425657 139.55796854 414.16661839 145.44875956 414.16725707 C149.13464286 414.1679691 152.82052249 414.17010636 156.50640488 414.17275429 C169.38122542 414.18200032 182.25603562 414.1860902 195.13085938 414.18530273 C207.10556447 414.1847025 219.08020997 414.19524553 231.05490601 414.2110464 C241.35672501 414.22415228 251.65852932 414.22948534 261.96035659 414.22884732 C268.10373578 414.22859319 274.24707487 414.23139767 280.39044571 414.24202538 C286.1738233 414.25175747 291.95712286 414.25175069 297.74050331 414.24450874 C299.8531118 414.24346915 301.96572528 414.24578824 304.07832527 414.2518692 C333.41974967 414.33079935 360.89760305 408.77696958 383 388 C383.84691406 387.23171875 384.69382812 386.4634375 385.56640625 385.671875 C399.65669498 372.33450246 409.15438149 354.72357404 414 336 C414.17498394 335.32778915 414.34996788 334.65557831 414.53025436 333.96299744 C416.70157926 324.01247945 416.2802954 313.89272195 416.25878906 303.765625 C416.26150251 301.6175169 416.26506542 299.46940974 416.26940918 297.32130432 C416.27849774 291.50885851 416.27500233 285.69648401 416.26865101 279.88403702 C416.26356748 273.7790534 416.26828947 267.67407567 416.27142334 261.5690918 C416.27505835 251.31021029 416.2702784 241.0513576 416.26074219 230.79248047 C416.24988178 218.9734547 416.25336754 207.15449808 416.264395 195.33547401 C416.27350895 185.15584031 416.27473246 174.97622728 416.26951766 164.79659081 C416.26641746 158.73136642 416.26593401 152.66617438 416.27259064 146.60095215 C416.27842263 140.88811495 416.27426154 135.1753656 416.26280212 129.46253777 C416.26018553 127.38063642 416.26086837 125.29872752 416.26532745 123.2168293 C416.28457261 113.30789961 416.12702353 103.49216749 415.12054443 93.62768555 C415.04464403 92.87655644 414.96874363 92.12542734 414.89054322 91.35153675 C412.08183142 66.8668773 398.12051378 45.12581531 380 29 C376.78426429 26.44745014 373.47389763 24.1839161 370 22 C368.90558594 21.25363281 368.90558594 21.25363281 367.7890625 20.4921875 C362.59010129 17.10310357 357.11118947 14.62950907 351.375 12.3125 C350.68986328 12.02697266 350.00472656 11.74144531 349.29882812 11.44726562 C334.43297606 5.68185342 319.20226078 5.56308507 303.5078125 5.61181641 C301.2851333 5.60774268 299.06245612 5.60239634 296.83978271 5.59588623 C290.84806017 5.58230212 284.85649398 5.58747427 278.86476898 5.59702349 C272.56755683 5.60466651 266.27035726 5.59756166 259.97314453 5.59286499 C248.72662305 5.58707308 237.48016546 5.59634344 226.23365903 5.611643 C216.06914925 5.62504333 205.90474231 5.62271435 195.74023438 5.60888672 C183.89154549 5.59277514 172.04290627 5.58688635 160.19420433 5.59572351 C153.93854685 5.60037893 147.68295996 5.60108389 141.42730713 5.59111404 C135.54365303 5.58239054 129.66019142 5.58856392 123.77655792 5.60579681 C121.62889168 5.60973306 119.48120899 5.60867731 117.3335495 5.60200882 C82.05684506 5.50264863 53.87409037 16.51565207 30 43 Z " fill="#FFFEFE" transform="translate(0,0)"/>
<path d="M0 0 C1.12409749 2.55479876 1.06457051 3.77587243 0.28735352 6.47363281 C-0.28607788 7.82473145 -0.28607788 7.82473145 -0.87109375 9.203125 C-1.28037109 10.1828125 -1.68964844 11.1625 -2.11132812 12.171875 C-2.54896484 13.18765625 -2.98660156 14.2034375 -3.4375 15.25 C-3.87126953 16.28125 -4.30503906 17.3125 -4.75195312 18.375 C-5.82461987 20.92111007 -6.90758009 23.46231711 -8 26 C-11.84142777 24.7705078 -15.57655878 23.38672144 -19.30249023 21.8425293 C-37.02377171 14.5093478 -58.08661882 10.27442837 -77 16 C-82.67096196 18.60345133 -87.64157154 21.59731074 -91 27 C-92.86713904 32.60141712 -92.66238975 38.65955622 -91.0625 44.3125 C-80.78626315 57.70274802 -58.14060057 60.09318897 -42.8125 63.60546875 C-25.07353886 67.75922401 -6.77855271 74.3501014 4 90 C9.67266054 101.43153172 11.2864358 114.0899751 7.25854492 126.33349609 C1.86932689 140.83772563 -7.62887552 150.040575 -21.54296875 156.54296875 C-34.36763223 161.9481659 -45.97066293 163.4579137 -59.8125 163.4375 C-60.86695816 163.43783234 -60.86695816 163.43783234 -61.94271851 163.43817139 C-84.23939897 163.36340376 -110.79371864 159.48190458 -128 144 C-129.2557898 140.23263061 -128.55901858 139.41617549 -126.91015625 135.89453125 C-126.45576172 134.91162109 -126.00136719 133.92871094 -125.53320312 132.91601562 C-125.04787109 131.89185547 -124.56253906 130.86769531 -124.0625 129.8125 C-123.34030273 128.25885742 -123.34030273 128.25885742 -122.60351562 126.67382812 C-121.41099818 124.11168669 -120.20955259 121.55413237 -119 119 C-115.00944358 119 -113.20766113 120.53867544 -109.8125 122.625 C-90.99789593 133.7378927 -67.03770308 140.19625035 -45.3125 135.015625 C-37.67269866 132.86525089 -30.62175936 130.3806897 -25.625 123.9375 C-23.18350028 119.17760138 -23.25084119 114.20468226 -24 109 C-26.99947894 102.08815723 -33.3223488 98.54376372 -40.04296875 95.72265625 C-47.93415159 92.93176334 -55.97817328 91.01785353 -64.125 89.125 C-107.99029067 78.90730236 -107.99029067 78.90730236 -119.875 61.0625 C-123.974003 53.61987621 -125.54039358 46.58922227 -125.4375 38.125 C-125.42614014 36.809552 -125.42614014 36.809552 -125.41455078 35.4675293 C-125.06706354 21.77729297 -118.98326584 11.22170517 -109.19921875 1.84765625 C-81.25214361 -21.63185803 -29.71548784 -19.58130412 0 0 Z " fill="#FFFDFC" transform="translate(272,130)"/>
</svg>
